<svg width="2080" height="2620" viewBox="0 0 2080 2620" fill="none" xmlns="http://www.w3.org/2000/svg">
<path d="M800 130C800 107.909 817.909 90 840 90C862.091 90 880 107.909 880 130V185C880 193.284 873.284 200 865 200H815C806.716 200 800 193.284 800 185V130Z" fill="white"/>
<path d="M880 40C880 62.0914 862.091 80 840 80C817.909 80 800 62.0914 800 40C800 17.9086 817.909 0 840 0C862.091 0 880 17.9086 880 40Z" fill="white"/>
<path d="M900 130C900 107.909 917.909 90 940 90C962.091 90 980 107.909 980 130V185C980 193.284 973.284 200 965 200H915C906.716 200 900 193.284 900 185V130Z" fill="white"/>
<path d="M980 40C980 62.0914 962.091 80 940 80C917.909 80 900 62.0914 900 40C900 17.9086 917.909 0 940 0C962.091 0 980 17.9086 980 40Z" fill="white"/>
<path d="M600 130C600 107.909 617.909 90 640 90C662.091 90 680 107.909 680 130V185C680 193.284 673.284 200 665 200H615C606.716 200 600 193.284 600 185V130Z" fill="white"/>
<path d="M680 40C680 62.0914 662.091 80 640 80C617.909 80 600 62.0914 600 40C600 17.9086 617.909 0 640 0C662.091 0 680 17.9086 680 40Z" fill="white"/>
<path d="M700 130C700 107.909 717.909 90 740 90C762.091 90 780 107.909 780 130V185C780 193.284 773.284 200 765 200H715C706.716 200 700 193.284 700 185V130Z" fill="white"/>
<path d="M780 40C780 62.0914 762.091 80 740 80C717.909 80 700 62.0914 700 40C700 17.9086 717.909 0 740 0C762.091 0 780 17.9086 780 40Z" fill="white"/>
<path d="M200 350C200 327.909 217.909 310 240 310C262.091 310 280 327.909 280 350V405C280 413.284 273.284 420 265 420H215C206.716 420 200 413.284 200 405V350Z" fill="white"/>
<path d="M280 260C280 282.091 262.091 300 240 300C217.909 300 200 282.091 200 260C200 237.909 217.909 220 240 220C262.091 220 280 237.909 280 260Z" fill="white"/>
<path d="M300 350C300 327.909 317.909 310 340 310C362.091 310 380 327.909 380 350V405C380 413.284 373.284 420 365 420H315C306.716 420 300 413.284 300 405V350Z" fill="white"/>
<path d="M380 260C380 282.091 362.091 300 340 300C317.909 300 300 282.091 300 260C300 237.909 317.909 220 340 220C362.091 220 380 237.909 380 260Z" fill="white"/>
<path d="M400 350C400 327.909 417.909 310 440 310C462.091 310 480 327.909 480 350V405C480 413.284 473.284 420 465 420H415C406.716 420 400 413.284 400 405V350Z" fill="white"/>
<path d="M480 260C480 282.091 462.091 300 440 300C417.909 300 400 282.091 400 260C400 237.909 417.909 220 440 220C462.091 220 480 237.909 480 260Z" fill="white"/>
<path d="M500 350C500 327.909 517.909 310 540 310C562.091 310 580 327.909 580 350V405C580 413.284 573.284 420 565 420H515C506.716 420 500 413.284 500 405V350Z" fill="white"/>
<path d="M580 260C580 282.091 562.091 300 540 300C517.909 300 500 282.091 500 260C500 237.909 517.909 220 540 220C562.091 220 580 237.909 580 260Z" fill="white"/>
<path d="M800 350C800 327.909 817.909 310 840 310C862.091 310 880 327.909 880 350V405C880 413.284 873.284 420 865 420H815C806.716 420 800 413.284 800 405V350Z" fill="white"/>
<path d="M880 260C880 282.091 862.091 300 840 300C817.909 300 800 282.091 800 260C800 237.909 817.909 220 840 220C862.091 220 880 237.909 880 260Z" fill="white"/>
<path d="M900 350C900 327.909 917.909 310 940 310C962.091 310 980 327.909 980 350V405C980 413.284 973.284 420 965 420H915C906.716 420 900 413.284 900 405V350Z" fill="white"/>
<path d="M980 260C980 282.091 962.091 300 940 300C917.909 300 900 282.091 900 260C900 237.909 917.909 220 940 220C962.091 220 980 237.909 980 260Z" fill="white"/>
<path d="M600 350C600 327.909 617.909 310 640 310C662.091 310 680 327.909 680 350V405C680 413.284 673.284 420 665 420H615C606.716 420 600 413.284 600 405V350Z" fill="white"/>
<path d="M680 260C680 282.091 662.091 300 640 300C617.909 300 600 282.091 600 260C600 237.909 617.909 220 640 220C662.091 220 680 237.909 680 260Z" fill="white"/>
<path d="M700 350C700 327.909 717.909 310 740 310C762.091 310 780 327.909 780 350V405C780 413.284 773.284 420 765 420H715C706.716 420 700 413.284 700 405V350Z" fill="white"/>
<path d="M780 260C780 282.091 762.091 300 740 300C717.909 300 700 282.091 700 260C700 237.909 717.909 220 740 220C762.091 220 780 237.909 780 260Z" fill="white"/>
<path d="M200 570C200 547.909 217.909 530 240 530C262.091 530 280 547.909 280 570V625C280 633.284 273.284 640 265 640H215C206.716 640 200 633.284 200 625V570Z" fill="white"/>
<path d="M280 480C280 502.091 262.091 520 240 520C217.909 520 200 502.091 200 480C200 457.909 217.909 440 240 440C262.091 440 280 457.909 280 480Z" fill="white"/>
<path d="M300 570C300 547.909 317.909 530 340 530C362.091 530 380 547.909 380 570V625C380 633.284 373.284 640 365 640H315C306.716 640 300 633.284 300 625V570Z" fill="white"/>
<path d="M380 480C380 502.091 362.091 520 340 520C317.909 520 300 502.091 300 480C300 457.909 317.909 440 340 440C362.091 440 380 457.909 380 480Z" fill="white"/>
<path d="M400 570C400 547.909 417.909 530 440 530C462.091 530 480 547.909 480 570V625C480 633.284 473.284 640 465 640H415C406.716 640 400 633.284 400 625V570Z" fill="white"/>
<path d="M480 480C480 502.091 462.091 520 440 520C417.909 520 400 502.091 400 480C400 457.909 417.909 440 440 440C462.091 440 480 457.909 480 480Z" fill="white"/>
<path d="M500 570C500 547.909 517.909 530 540 530C562.091 530 580 547.909 580 570V625C580 633.284 573.284 640 565 640H515C506.716 640 500 633.284 500 625V570Z" fill="white"/>
<path d="M580 480C580 502.091 562.091 520 540 520C517.909 520 500 502.091 500 480C500 457.909 517.909 440 540 440C562.091 440 580 457.909 580 480Z" fill="white"/>
<path d="M800 570C800 547.909 817.909 530 840 530C862.091 530 880 547.909 880 570V625C880 633.284 873.284 640 865 640H815C806.716 640 800 633.284 800 625V570Z" fill="white"/>
<path d="M880 480C880 502.091 862.091 520 840 520C817.909 520 800 502.091 800 480C800 457.909 817.909 440 840 440C862.091 440 880 457.909 880 480Z" fill="white"/>
<path d="M900 570C900 547.909 917.909 530 940 530C962.091 530 980 547.909 980 570V625C980 633.284 973.284 640 965 640H915C906.716 640 900 633.284 900 625V570Z" fill="white"/>
<path d="M980 480C980 502.091 962.091 520 940 520C917.909 520 900 502.091 900 480C900 457.909 917.909 440 940 440C962.091 440 980 457.909 980 480Z" fill="white"/>
<path d="M600 570C600 547.909 617.909 530 640 530C662.091 530 680 547.909 680 570V625C680 633.284 673.284 640 665 640H615C606.716 640 600 633.284 600 625V570Z" fill="white"/>
<path d="M680 480C680 502.091 662.091 520 640 520C617.909 520 600 502.091 600 480C600 457.909 617.909 440 640 440C662.091 440 680 457.909 680 480Z" fill="white"/>
<path d="M700 570C700 547.909 717.909 530 740 530C762.091 530 780 547.909 780 570V625C780 633.284 773.284 640 765 640H715C706.716 640 700 633.284 700 625V570Z" fill="white"/>
<path d="M780 480C780 502.091 762.091 520 740 520C717.909 520 700 502.091 700 480C700 457.909 717.909 440 740 440C762.091 440 780 457.909 780 480Z" fill="white"/>
<path d="M0 790C0 767.909 17.9086 750 40 750C62.0914 750 80 767.909 80 790V845C80 853.284 73.2843 860 65 860H15C6.71573 860 0 853.284 0 845V790Z" fill="white"/>
<path d="M80 700C80 722.091 62.0914 740 40 740C17.9086 740 0 722.091 0 700C0 677.909 17.9086 660 40 660C62.0914 660 80 677.909 80 700Z" fill="white"/>
<path d="M100 790C100 767.909 117.909 750 140 750C162.091 750 180 767.909 180 790V845C180 853.284 173.284 860 165 860H115C106.716 860 100 853.284 100 845V790Z" fill="white"/>
<path d="M180 700C180 722.091 162.091 740 140 740C117.909 740 100 722.091 100 700C100 677.909 117.909 660 140 660C162.091 660 180 677.909 180 700Z" fill="white"/>
<path d="M200 790C200 767.909 217.909 750 240 750C262.091 750 280 767.909 280 790V845C280 853.284 273.284 860 265 860H215C206.716 860 200 853.284 200 845V790Z" fill="white"/>
<path d="M280 700C280 722.091 262.091 740 240 740C217.909 740 200 722.091 200 700C200 677.909 217.909 660 240 660C262.091 660 280 677.909 280 700Z" fill="white"/>
<path d="M300 790C300 767.909 317.909 750 340 750C362.091 750 380 767.909 380 790V845C380 853.284 373.284 860 365 860H315C306.716 860 300 853.284 300 845V790Z" fill="white"/>
<path d="M380 700C380 722.091 362.091 740 340 740C317.909 740 300 722.091 300 700C300 677.909 317.909 660 340 660C362.091 660 380 677.909 380 700Z" fill="white"/>
<path d="M400 790C400 767.909 417.909 750 440 750C462.091 750 480 767.909 480 790V845C480 853.284 473.284 860 465 860H415C406.716 860 400 853.284 400 845V790Z" fill="white"/>
<path d="M480 700C480 722.091 462.091 740 440 740C417.909 740 400 722.091 400 700C400 677.909 417.909 660 440 660C462.091 660 480 677.909 480 700Z" fill="white"/>
<path d="M500 790C500 767.909 517.909 750 540 750C562.091 750 580 767.909 580 790V845C580 853.284 573.284 860 565 860H515C506.716 860 500 853.284 500 845V790Z" fill="white"/>
<path d="M580 700C580 722.091 562.091 740 540 740C517.909 740 500 722.091 500 700C500 677.909 517.909 660 540 660C562.091 660 580 677.909 580 700Z" fill="white"/>
<path d="M800 790C800 767.909 817.909 750 840 750C862.091 750 880 767.909 880 790V845C880 853.284 873.284 860 865 860H815C806.716 860 800 853.284 800 845V790Z" fill="white"/>
<path d="M880 700C880 722.091 862.091 740 840 740C817.909 740 800 722.091 800 700C800 677.909 817.909 660 840 660C862.091 660 880 677.909 880 700Z" fill="white"/>
<path d="M900 790C900 767.909 917.909 750 940 750C962.091 750 980 767.909 980 790V845C980 853.284 973.284 860 965 860H915C906.716 860 900 853.284 900 845V790Z" fill="white"/>
<path d="M980 700C980 722.091 962.091 740 940 740C917.909 740 900 722.091 900 700C900 677.909 917.909 660 940 660C962.091 660 980 677.909 980 700Z" fill="white"/>
<path d="M600 790C600 767.909 617.909 750 640 750C662.091 750 680 767.909 680 790V845C680 853.284 673.284 860 665 860H615C606.716 860 600 853.284 600 845V790Z" fill="white"/>
<path d="M680 700C680 722.091 662.091 740 640 740C617.909 740 600 722.091 600 700C600 677.909 617.909 660 640 660C662.091 660 680 677.909 680 700Z" fill="white"/>
<path d="M700 790C700 767.909 717.909 750 740 750C762.091 750 780 767.909 780 790V845C780 853.284 773.284 860 765 860H715C706.716 860 700 853.284 700 845V790Z" fill="white"/>
<path d="M780 700C780 722.091 762.091 740 740 740C717.909 740 700 722.091 700 700C700 677.909 717.909 660 740 660C762.091 660 780 677.909 780 700Z" fill="white"/>
<path d="M1100 130C1100 107.909 1117.91 90 1140 90C1162.09 90 1180 107.909 1180 130V185C1180 193.284 1173.28 200 1165 200H1115C1106.72 200 1100 193.284 1100 185V130Z" fill="white"/>
<path d="M1180 40C1180 62.0914 1162.09 80 1140 80C1117.91 80 1100 62.0914 1100 40C1100 17.9086 1117.91 0 1140 0C1162.09 0 1180 17.9086 1180 40Z" fill="white"/>
<path d="M1200 130C1200 107.909 1217.91 90 1240 90C1262.09 90 1280 107.909 1280 130V185C1280 193.284 1273.28 200 1265 200H1215C1206.72 200 1200 193.284 1200 185V130Z" fill="white"/>
<path d="M1280 40C1280 62.0914 1262.09 80 1240 80C1217.91 80 1200 62.0914 1200 40C1200 17.9086 1217.91 0 1240 0C1262.09 0 1280 17.9086 1280 40Z" fill="white"/>
<path d="M1300 130C1300 107.909 1317.91 90 1340 90C1362.09 90 1380 107.909 1380 130V185C1380 193.284 1373.28 200 1365 200H1315C1306.72 200 1300 193.284 1300 185V130Z" fill="white"/>
<path d="M1380 40C1380 62.0914 1362.09 80 1340 80C1317.91 80 1300 62.0914 1300 40C1300 17.9086 1317.91 0 1340 0C1362.09 0 1380 17.9086 1380 40Z" fill="white"/>
<path d="M1400 130C1400 107.909 1417.91 90 1440 90C1462.09 90 1480 107.909 1480 130V185C1480 193.284 1473.28 200 1465 200H1415C1406.72 200 1400 193.284 1400 185V130Z" fill="white"/>
<path d="M1480 40C1480 62.0914 1462.09 80 1440 80C1417.91 80 1400 62.0914 1400 40C1400 17.9086 1417.91 0 1440 0C1462.09 0 1480 17.9086 1480 40Z" fill="white"/>
<path d="M1100 350C1100 327.909 1117.91 310 1140 310C1162.09 310 1180 327.909 1180 350V405C1180 413.284 1173.28 420 1165 420H1115C1106.72 420 1100 413.284 1100 405V350Z" fill="white"/>
<path d="M1180 260C1180 282.091 1162.09 300 1140 300C1117.91 300 1100 282.091 1100 260C1100 237.909 1117.91 220 1140 220C1162.09 220 1180 237.909 1180 260Z" fill="white"/>
<path d="M1200 350C1200 327.909 1217.91 310 1240 310C1262.09 310 1280 327.909 1280 350V405C1280 413.284 1273.28 420 1265 420H1215C1206.72 420 1200 413.284 1200 405V350Z" fill="white"/>
<path d="M1280 260C1280 282.091 1262.09 300 1240 300C1217.91 300 1200 282.091 1200 260C1200 237.909 1217.91 220 1240 220C1262.09 220 1280 237.909 1280 260Z" fill="white"/>
<path d="M1300 350C1300 327.909 1317.91 310 1340 310C1362.09 310 1380 327.909 1380 350V405C1380 413.284 1373.28 420 1365 420H1315C1306.72 420 1300 413.284 1300 405V350Z" fill="white"/>
<path d="M1380 260C1380 282.091 1362.09 300 1340 300C1317.91 300 1300 282.091 1300 260C1300 237.909 1317.91 220 1340 220C1362.09 220 1380 237.909 1380 260Z" fill="white"/>
<path d="M1400 350C1400 327.909 1417.91 310 1440 310C1462.09 310 1480 327.909 1480 350V405C1480 413.284 1473.28 420 1465 420H1415C1406.72 420 1400 413.284 1400 405V350Z" fill="white"/>
<path d="M1480 260C1480 282.091 1462.09 300 1440 300C1417.91 300 1400 282.091 1400 260C1400 237.909 1417.91 220 1440 220C1462.09 220 1480 237.909 1480 260Z" fill="white"/>
<path d="M1500 350C1500 327.909 1517.91 310 1540 310C1562.09 310 1580 327.909 1580 350V405C1580 413.284 1573.28 420 1565 420H1515C1506.72 420 1500 413.284 1500 405V350Z" fill="white"/>
<path d="M1580 260C1580 282.091 1562.09 300 1540 300C1517.91 300 1500 282.091 1500 260C1500 237.909 1517.91 220 1540 220C1562.09 220 1580 237.909 1580 260Z" fill="white"/>
<path d="M1600 350C1600 327.909 1617.91 310 1640 310C1662.09 310 1680 327.909 1680 350V405C1680 413.284 1673.28 420 1665 420H1615C1606.72 420 1600 413.284 1600 405V350Z" fill="white"/>
<path d="M1680 260C1680 282.091 1662.09 300 1640 300C1617.91 300 1600 282.091 1600 260C1600 237.909 1617.91 220 1640 220C1662.09 220 1680 237.909 1680 260Z" fill="white"/>
<path d="M1700 350C1700 327.909 1717.91 310 1740 310C1762.09 310 1780 327.909 1780 350V405C1780 413.284 1773.28 420 1765 420H1715C1706.72 420 1700 413.284 1700 405V350Z" fill="white"/>
<path d="M1780 260C1780 282.091 1762.09 300 1740 300C1717.91 300 1700 282.091 1700 260C1700 237.909 1717.91 220 1740 220C1762.09 220 1780 237.909 1780 260Z" fill="white"/>
<path d="M1800 350C1800 327.909 1817.91 310 1840 310C1862.09 310 1880 327.909 1880 350V405C1880 413.284 1873.28 420 1865 420H1815C1806.72 420 1800 413.284 1800 405V350Z" fill="white"/>
<path d="M1880 260C1880 282.091 1862.09 300 1840 300C1817.91 300 1800 282.091 1800 260C1800 237.909 1817.91 220 1840 220C1862.09 220 1880 237.909 1880 260Z" fill="white"/>
<path d="M1100 570C1100 547.909 1117.91 530 1140 530C1162.09 530 1180 547.909 1180 570V625C1180 633.284 1173.28 640 1165 640H1115C1106.72 640 1100 633.284 1100 625V570Z" fill="white"/>
<path d="M1180 480C1180 502.091 1162.09 520 1140 520C1117.91 520 1100 502.091 1100 480C1100 457.909 1117.91 440 1140 440C1162.09 440 1180 457.909 1180 480Z" fill="white"/>
<path d="M1200 570C1200 547.909 1217.91 530 1240 530C1262.09 530 1280 547.909 1280 570V625C1280 633.284 1273.28 640 1265 640H1215C1206.72 640 1200 633.284 1200 625V570Z" fill="white"/>
<path d="M1280 480C1280 502.091 1262.09 520 1240 520C1217.91 520 1200 502.091 1200 480C1200 457.909 1217.91 440 1240 440C1262.09 440 1280 457.909 1280 480Z" fill="white"/>
<path d="M1300 570C1300 547.909 1317.91 530 1340 530C1362.09 530 1380 547.909 1380 570V625C1380 633.284 1373.28 640 1365 640H1315C1306.72 640 1300 633.284 1300 625V570Z" fill="white"/>
<path d="M1380 480C1380 502.091 1362.09 520 1340 520C1317.91 520 1300 502.091 1300 480C1300 457.909 1317.91 440 1340 440C1362.09 440 1380 457.909 1380 480Z" fill="white"/>
<path d="M1400 570C1400 547.909 1417.91 530 1440 530C1462.09 530 1480 547.909 1480 570V625C1480 633.284 1473.28 640 1465 640H1415C1406.72 640 1400 633.284 1400 625V570Z" fill="white"/>
<path d="M1480 480C1480 502.091 1462.09 520 1440 520C1417.91 520 1400 502.091 1400 480C1400 457.909 1417.91 440 1440 440C1462.09 440 1480 457.909 1480 480Z" fill="white"/>
<path d="M1500 570C1500 547.909 1517.91 530 1540 530C1562.09 530 1580 547.909 1580 570V625C1580 633.284 1573.28 640 1565 640H1515C1506.72 640 1500 633.284 1500 625V570Z" fill="white"/>
<path d="M1580 480C1580 502.091 1562.09 520 1540 520C1517.91 520 1500 502.091 1500 480C1500 457.909 1517.91 440 1540 440C1562.09 440 1580 457.909 1580 480Z" fill="white"/>
<path d="M1600 570C1600 547.909 1617.91 530 1640 530C1662.09 530 1680 547.909 1680 570V625C1680 633.284 1673.28 640 1665 640H1615C1606.72 640 1600 633.284 1600 625V570Z" fill="white"/>
<path d="M1680 480C1680 502.091 1662.09 520 1640 520C1617.91 520 1600 502.091 1600 480C1600 457.909 1617.91 440 1640 440C1662.09 440 1680 457.909 1680 480Z" fill="white"/>
<path d="M1700 570C1700 547.909 1717.91 530 1740 530C1762.09 530 1780 547.909 1780 570V625C1780 633.284 1773.28 640 1765 640H1715C1706.72 640 1700 633.284 1700 625V570Z" fill="white"/>
<path d="M1780 480C1780 502.091 1762.09 520 1740 520C1717.91 520 1700 502.091 1700 480C1700 457.909 1717.91 440 1740 440C1762.09 440 1780 457.909 1780 480Z" fill="white"/>
<path d="M1800 570C1800 547.909 1817.91 530 1840 530C1862.09 530 1880 547.909 1880 570V625C1880 633.284 1873.28 640 1865 640H1815C1806.72 640 1800 633.284 1800 625V570Z" fill="white"/>
<path d="M1880 480C1880 502.091 1862.09 520 1840 520C1817.91 520 1800 502.091 1800 480C1800 457.909 1817.91 440 1840 440C1862.09 440 1880 457.909 1880 480Z" fill="white"/>
<path d="M1100 790C1100 767.909 1117.91 750 1140 750C1162.09 750 1180 767.909 1180 790V845C1180 853.284 1173.28 860 1165 860H1115C1106.72 860 1100 853.284 1100 845V790Z" fill="white"/>
<path d="M1180 700C1180 722.091 1162.09 740 1140 740C1117.91 740 1100 722.091 1100 700C1100 677.909 1117.91 660 1140 660C1162.09 660 1180 677.909 1180 700Z" fill="white"/>
<path d="M1200 790C1200 767.909 1217.91 750 1240 750C1262.09 750 1280 767.909 1280 790V845C1280 853.284 1273.28 860 1265 860H1215C1206.72 860 1200 853.284 1200 845V790Z" fill="white"/>
<path d="M1280 700C1280 722.091 1262.09 740 1240 740C1217.91 740 1200 722.091 1200 700C1200 677.909 1217.91 660 1240 660C1262.09 660 1280 677.909 1280 700Z" fill="white"/>
<path d="M1300 790C1300 767.909 1317.91 750 1340 750C1362.09 750 1380 767.909 1380 790V845C1380 853.284 1373.28 860 1365 860H1315C1306.72 860 1300 853.284 1300 845V790Z" fill="white"/>
<path d="M1380 700C1380 722.091 1362.09 740 1340 740C1317.91 740 1300 722.091 1300 700C1300 677.909 1317.91 660 1340 660C1362.09 660 1380 677.909 1380 700Z" fill="white"/>
<path d="M1400 790C1400 767.909 1417.91 750 1440 750C1462.09 750 1480 767.909 1480 790V845C1480 853.284 1473.28 860 1465 860H1415C1406.72 860 1400 853.284 1400 845V790Z" fill="white"/>
<path d="M1480 700C1480 722.091 1462.09 740 1440 740C1417.91 740 1400 722.091 1400 700C1400 677.909 1417.91 660 1440 660C1462.09 660 1480 677.909 1480 700Z" fill="white"/>
<path d="M1500 790C1500 767.909 1517.91 750 1540 750C1562.09 750 1580 767.909 1580 790V845C1580 853.284 1573.28 860 1565 860H1515C1506.72 860 1500 853.284 1500 845V790Z" fill="white"/>
<path d="M1580 700C1580 722.091 1562.09 740 1540 740C1517.91 740 1500 722.091 1500 700C1500 677.909 1517.91 660 1540 660C1562.09 660 1580 677.909 1580 700Z" fill="white"/>
<path d="M1600 790C1600 767.909 1617.91 750 1640 750C1662.09 750 1680 767.909 1680 790V845C1680 853.284 1673.28 860 1665 860H1615C1606.72 860 1600 853.284 1600 845V790Z" fill="white"/>
<path d="M1680 700C1680 722.091 1662.09 740 1640 740C1617.91 740 1600 722.091 1600 700C1600 677.909 1617.91 660 1640 660C1662.09 660 1680 677.909 1680 700Z" fill="white"/>
<path d="M1900 790C1900 767.909 1917.91 750 1940 750C1962.09 750 1980 767.909 1980 790V845C1980 853.284 1973.28 860 1965 860H1915C1906.72 860 1900 853.284 1900 845V790Z" fill="white"/>
<path d="M1980 700C1980 722.091 1962.09 740 1940 740C1917.91 740 1900 722.091 1900 700C1900 677.909 1917.91 660 1940 660C1962.09 660 1980 677.909 1980 700Z" fill="white"/>
<path d="M2000 790C2000 767.909 2017.91 750 2040 750C2062.09 750 2080 767.909 2080 790V845C2080 853.284 2073.28 860 2065 860H2015C2006.72 860 2000 853.284 2000 845V790Z" fill="white"/>
<path d="M2080 700C2080 722.091 2062.09 740 2040 740C2017.91 740 2000 722.091 2000 700C2000 677.909 2017.91 660 2040 660C2062.09 660 2080 677.909 2080 700Z" fill="white"/>
<path d="M1700 790C1700 767.909 1717.91 750 1740 750C1762.09 750 1780 767.909 1780 790V845C1780 853.284 1773.28 860 1765 860H1715C1706.72 860 1700 853.284 1700 845V790Z" fill="white"/>
<path d="M1780 700C1780 722.091 1762.09 740 1740 740C1717.91 740 1700 722.091 1700 700C1700 677.909 1717.91 660 1740 660C1762.09 660 1780 677.909 1780 700Z" fill="white"/>
<path d="M1800 790C1800 767.909 1817.91 750 1840 750C1862.09 750 1880 767.909 1880 790V845C1880 853.284 1873.28 860 1865 860H1815C1806.72 860 1800 853.284 1800 845V790Z" fill="white"/>
<path d="M1880 700C1880 722.091 1862.09 740 1840 740C1817.91 740 1800 722.091 1800 700C1800 677.909 1817.91 660 1840 660C1862.09 660 1880 677.909 1880 700Z" fill="white"/>
<path d="M0 1010C0 987.909 17.9086 970 40 970C62.0914 970 80 987.909 80 1010V1065C80 1073.28 73.2843 1080 65 1080H15C6.71573 1080 0 1073.28 0 1065V1010Z" fill="white"/>
<path d="M80 920C80 942.091 62.0914 960 40 960C17.9086 960 0 942.091 0 920C0 897.909 17.9086 880 40 880C62.0914 880 80 897.909 80 920Z" fill="white"/>
<path d="M100 1010C100 987.909 117.909 970 140 970C162.091 970 180 987.909 180 1010V1065C180 1073.28 173.284 1080 165 1080H115C106.716 1080 100 1073.28 100 1065V1010Z" fill="white"/>
<path d="M180 920C180 942.091 162.091 960 140 960C117.909 960 100 942.091 100 920C100 897.909 117.909 880 140 880C162.091 880 180 897.909 180 920Z" fill="white"/>
<path d="M200 1010C200 987.909 217.909 970 240 970C262.091 970 280 987.909 280 1010V1065C280 1073.28 273.284 1080 265 1080H215C206.716 1080 200 1073.28 200 1065V1010Z" fill="white"/>
<path d="M280 920C280 942.091 262.091 960 240 960C217.909 960 200 942.091 200 920C200 897.909 217.909 880 240 880C262.091 880 280 897.909 280 920Z" fill="white"/>
<path d="M300 1010C300 987.909 317.909 970 340 970C362.091 970 380 987.909 380 1010V1065C380 1073.28 373.284 1080 365 1080H315C306.716 1080 300 1073.28 300 1065V1010Z" fill="white"/>
<path d="M380 920C380 942.091 362.091 960 340 960C317.909 960 300 942.091 300 920C300 897.909 317.909 880 340 880C362.091 880 380 897.909 380 920Z" fill="white"/>
<path d="M400 1010C400 987.909 417.909 970 440 970C462.091 970 480 987.909 480 1010V1065C480 1073.28 473.284 1080 465 1080H415C406.716 1080 400 1073.28 400 1065V1010Z" fill="white"/>
<path d="M480 920C480 942.091 462.091 960 440 960C417.909 960 400 942.091 400 920C400 897.909 417.909 880 440 880C462.091 880 480 897.909 480 920Z" fill="white"/>
<path d="M500 1010C500 987.909 517.909 970 540 970C562.091 970 580 987.909 580 1010V1065C580 1073.28 573.284 1080 565 1080H515C506.716 1080 500 1073.28 500 1065V1010Z" fill="white"/>
<path d="M580 920C580 942.091 562.091 960 540 960C517.909 960 500 942.091 500 920C500 897.909 517.909 880 540 880C562.091 880 580 897.909 580 920Z" fill="white"/>
<path d="M800 1010C800 987.909 817.909 970 840 970C862.091 970 880 987.909 880 1010V1065C880 1073.28 873.284 1080 865 1080H815C806.716 1080 800 1073.28 800 1065V1010Z" fill="white"/>
<path d="M880 920C880 942.091 862.091 960 840 960C817.909 960 800 942.091 800 920C800 897.909 817.909 880 840 880C862.091 880 880 897.909 880 920Z" fill="white"/>
<path d="M900 1010C900 987.909 917.909 970 940 970C962.091 970 980 987.909 980 1010V1065C980 1073.28 973.284 1080 965 1080H915C906.716 1080 900 1073.28 900 1065V1010Z" fill="white"/>
<path d="M980 920C980 942.091 962.091 960 940 960C917.909 960 900 942.091 900 920C900 897.909 917.909 880 940 880C962.091 880 980 897.909 980 920Z" fill="white"/>
<path d="M600 1010C600 987.909 617.909 970 640 970C662.091 970 680 987.909 680 1010V1065C680 1073.28 673.284 1080 665 1080H615C606.716 1080 600 1073.28 600 1065V1010Z" fill="white"/>
<path d="M680 920C680 942.091 662.091 960 640 960C617.909 960 600 942.091 600 920C600 897.909 617.909 880 640 880C662.091 880 680 897.909 680 920Z" fill="white"/>
<path d="M700 1010C700 987.909 717.909 970 740 970C762.091 970 780 987.909 780 1010V1065C780 1073.28 773.284 1080 765 1080H715C706.716 1080 700 1073.28 700 1065V1010Z" fill="white"/>
<path d="M780 920C780 942.091 762.091 960 740 960C717.909 960 700 942.091 700 920C700 897.909 717.909 880 740 880C762.091 880 780 897.909 780 920Z" fill="white"/>
<path d="M0 1230C0 1207.91 17.9086 1190 40 1190C62.0914 1190 80 1207.91 80 1230V1285C80 1293.28 73.2843 1300 65 1300H15C6.71573 1300 0 1293.28 0 1285V1230Z" fill="white"/>
<path d="M80 1140C80 1162.09 62.0914 1180 40 1180C17.9086 1180 0 1162.09 0 1140C0 1117.91 17.9086 1100 40 1100C62.0914 1100 80 1117.91 80 1140Z" fill="white"/>
<path d="M100 1230C100 1207.91 117.909 1190 140 1190C162.091 1190 180 1207.91 180 1230V1285C180 1293.28 173.284 1300 165 1300H115C106.716 1300 100 1293.28 100 1285V1230Z" fill="white"/>
<path d="M180 1140C180 1162.09 162.091 1180 140 1180C117.909 1180 100 1162.09 100 1140C100 1117.91 117.909 1100 140 1100C162.091 1100 180 1117.91 180 1140Z" fill="white"/>
<path d="M200 1230C200 1207.91 217.909 1190 240 1190C262.091 1190 280 1207.91 280 1230V1285C280 1293.28 273.284 1300 265 1300H215C206.716 1300 200 1293.28 200 1285V1230Z" fill="white"/>
<path d="M280 1140C280 1162.09 262.091 1180 240 1180C217.909 1180 200 1162.09 200 1140C200 1117.91 217.909 1100 240 1100C262.091 1100 280 1117.91 280 1140Z" fill="white"/>
<path d="M300 1230C300 1207.91 317.909 1190 340 1190C362.091 1190 380 1207.91 380 1230V1285C380 1293.28 373.284 1300 365 1300H315C306.716 1300 300 1293.28 300 1285V1230Z" fill="white"/>
<path d="M380 1140C380 1162.09 362.091 1180 340 1180C317.909 1180 300 1162.09 300 1140C300 1117.91 317.909 1100 340 1100C362.091 1100 380 1117.91 380 1140Z" fill="white"/>
<path d="M400 1230C400 1207.91 417.909 1190 440 1190C462.091 1190 480 1207.91 480 1230V1285C480 1293.28 473.284 1300 465 1300H415C406.716 1300 400 1293.28 400 1285V1230Z" fill="white"/>
<path d="M480 1140C480 1162.09 462.091 1180 440 1180C417.909 1180 400 1162.09 400 1140C400 1117.91 417.909 1100 440 1100C462.091 1100 480 1117.91 480 1140Z" fill="white"/>
<path d="M500 1230C500 1207.91 517.909 1190 540 1190C562.091 1190 580 1207.91 580 1230V1285C580 1293.28 573.284 1300 565 1300H515C506.716 1300 500 1293.28 500 1285V1230Z" fill="white"/>
<path d="M580 1140C580 1162.09 562.091 1180 540 1180C517.909 1180 500 1162.09 500 1140C500 1117.91 517.909 1100 540 1100C562.091 1100 580 1117.91 580 1140Z" fill="white"/>
<path d="M800 1230C800 1207.91 817.909 1190 840 1190C862.091 1190 880 1207.91 880 1230V1285C880 1293.28 873.284 1300 865 1300H815C806.716 1300 800 1293.28 800 1285V1230Z" fill="white"/>
<path d="M880 1140C880 1162.09 862.091 1180 840 1180C817.909 1180 800 1162.09 800 1140C800 1117.91 817.909 1100 840 1100C862.091 1100 880 1117.91 880 1140Z" fill="white"/>
<path d="M900 1230C900 1207.91 917.909 1190 940 1190C962.091 1190 980 1207.91 980 1230V1285C980 1293.28 973.284 1300 965 1300H915C906.716 1300 900 1293.28 900 1285V1230Z" fill="white"/>
<path d="M980 1140C980 1162.09 962.091 1180 940 1180C917.909 1180 900 1162.09 900 1140C900 1117.91 917.909 1100 940 1100C962.091 1100 980 1117.91 980 1140Z" fill="white"/>
<path d="M600 1230C600 1207.91 617.909 1190 640 1190C662.091 1190 680 1207.91 680 1230V1285C680 1293.28 673.284 1300 665 1300H615C606.716 1300 600 1293.28 600 1285V1230Z" fill="white"/>
<path d="M680 1140C680 1162.09 662.091 1180 640 1180C617.909 1180 600 1162.09 600 1140C600 1117.91 617.909 1100 640 1100C662.091 1100 680 1117.91 680 1140Z" fill="white"/>
<path d="M700 1230C700 1207.91 717.909 1190 740 1190C762.091 1190 780 1207.91 780 1230V1285C780 1293.28 773.284 1300 765 1300H715C706.716 1300 700 1293.28 700 1285V1230Z" fill="white"/>
<path d="M780 1140C780 1162.09 762.091 1180 740 1180C717.909 1180 700 1162.09 700 1140C700 1117.91 717.909 1100 740 1100C762.091 1100 780 1117.91 780 1140Z" fill="white"/>
<path d="M0 1450C0 1427.91 17.9086 1410 40 1410C62.0914 1410 80 1427.91 80 1450V1505C80 1513.28 73.2843 1520 65 1520H15C6.71573 1520 0 1513.28 0 1505V1450Z" fill="white"/>
<path d="M80 1360C80 1382.09 62.0914 1400 40 1400C17.9086 1400 0 1382.09 0 1360C0 1337.91 17.9086 1320 40 1320C62.0914 1320 80 1337.91 80 1360Z" fill="white"/>
<path d="M100 1450C100 1427.91 117.909 1410 140 1410C162.091 1410 180 1427.91 180 1450V1505C180 1513.28 173.284 1520 165 1520H115C106.716 1520 100 1513.28 100 1505V1450Z" fill="white"/>
<path d="M180 1360C180 1382.09 162.091 1400 140 1400C117.909 1400 100 1382.09 100 1360C100 1337.91 117.909 1320 140 1320C162.091 1320 180 1337.91 180 1360Z" fill="white"/>
<path d="M200 1450C200 1427.91 217.909 1410 240 1410C262.091 1410 280 1427.91 280 1450V1505C280 1513.28 273.284 1520 265 1520H215C206.716 1520 200 1513.28 200 1505V1450Z" fill="white"/>
<path d="M280 1360C280 1382.09 262.091 1400 240 1400C217.909 1400 200 1382.09 200 1360C200 1337.91 217.909 1320 240 1320C262.091 1320 280 1337.91 280 1360Z" fill="white"/>
<path d="M300 1450C300 1427.91 317.909 1410 340 1410C362.091 1410 380 1427.91 380 1450V1505C380 1513.28 373.284 1520 365 1520H315C306.716 1520 300 1513.28 300 1505V1450Z" fill="white"/>
<path d="M380 1360C380 1382.09 362.091 1400 340 1400C317.909 1400 300 1382.09 300 1360C300 1337.91 317.909 1320 340 1320C362.091 1320 380 1337.91 380 1360Z" fill="white"/>
<path d="M400 1450C400 1427.91 417.909 1410 440 1410C462.091 1410 480 1427.91 480 1450V1505C480 1513.28 473.284 1520 465 1520H415C406.716 1520 400 1513.28 400 1505V1450Z" fill="white"/>
<path d="M480 1360C480 1382.09 462.091 1400 440 1400C417.909 1400 400 1382.09 400 1360C400 1337.91 417.909 1320 440 1320C462.091 1320 480 1337.91 480 1360Z" fill="white"/>
<path d="M500 1450C500 1427.91 517.909 1410 540 1410C562.091 1410 580 1427.91 580 1450V1505C580 1513.28 573.284 1520 565 1520H515C506.716 1520 500 1513.28 500 1505V1450Z" fill="white"/>
<path d="M580 1360C580 1382.09 562.091 1400 540 1400C517.909 1400 500 1382.09 500 1360C500 1337.91 517.909 1320 540 1320C562.091 1320 580 1337.91 580 1360Z" fill="white"/>
<path d="M800 1450C800 1427.91 817.909 1410 840 1410C862.091 1410 880 1427.91 880 1450V1505C880 1513.28 873.284 1520 865 1520H815C806.716 1520 800 1513.28 800 1505V1450Z" fill="white"/>
<path d="M880 1360C880 1382.09 862.091 1400 840 1400C817.909 1400 800 1382.09 800 1360C800 1337.91 817.909 1320 840 1320C862.091 1320 880 1337.91 880 1360Z" fill="white"/>
<path d="M900 1450C900 1427.91 917.909 1410 940 1410C962.091 1410 980 1427.91 980 1450V1505C980 1513.28 973.284 1520 965 1520H915C906.716 1520 900 1513.28 900 1505V1450Z" fill="white"/>
<path d="M980 1360C980 1382.09 962.091 1400 940 1400C917.909 1400 900 1382.09 900 1360C900 1337.91 917.909 1320 940 1320C962.091 1320 980 1337.91 980 1360Z" fill="white"/>
<path d="M600 1450C600 1427.91 617.909 1410 640 1410C662.091 1410 680 1427.91 680 1450V1505C680 1513.28 673.284 1520 665 1520H615C606.716 1520 600 1513.28 600 1505V1450Z" fill="white"/>
<path d="M680 1360C680 1382.09 662.091 1400 640 1400C617.909 1400 600 1382.09 600 1360C600 1337.91 617.909 1320 640 1320C662.091 1320 680 1337.91 680 1360Z" fill="white"/>
<path d="M700 1450C700 1427.91 717.909 1410 740 1410C762.091 1410 780 1427.91 780 1450V1505C780 1513.28 773.284 1520 765 1520H715C706.716 1520 700 1513.28 700 1505V1450Z" fill="white"/>
<path d="M780 1360C780 1382.09 762.091 1400 740 1400C717.909 1400 700 1382.09 700 1360C700 1337.91 717.909 1320 740 1320C762.091 1320 780 1337.91 780 1360Z" fill="white"/>
<path d="M0 1670C0 1647.91 17.9086 1630 40 1630C62.0914 1630 80 1647.91 80 1670V1725C80 1733.28 73.2843 1740 65 1740H15C6.71573 1740 0 1733.28 0 1725V1670Z" fill="white"/>
<path d="M80 1580C80 1602.09 62.0914 1620 40 1620C17.9086 1620 0 1602.09 0 1580C0 1557.91 17.9086 1540 40 1540C62.0914 1540 80 1557.91 80 1580Z" fill="white"/>
<path d="M100 1670C100 1647.91 117.909 1630 140 1630C162.091 1630 180 1647.91 180 1670V1725C180 1733.28 173.284 1740 165 1740H115C106.716 1740 100 1733.28 100 1725V1670Z" fill="white"/>
<path d="M180 1580C180 1602.09 162.091 1620 140 1620C117.909 1620 100 1602.09 100 1580C100 1557.91 117.909 1540 140 1540C162.091 1540 180 1557.91 180 1580Z" fill="white"/>
<path d="M200 1670C200 1647.91 217.909 1630 240 1630C262.091 1630 280 1647.91 280 1670V1725C280 1733.28 273.284 1740 265 1740H215C206.716 1740 200 1733.28 200 1725V1670Z" fill="white"/>
<path d="M280 1580C280 1602.09 262.091 1620 240 1620C217.909 1620 200 1602.09 200 1580C200 1557.91 217.909 1540 240 1540C262.091 1540 280 1557.91 280 1580Z" fill="white"/>
<path d="M300 1670C300 1647.91 317.909 1630 340 1630C362.091 1630 380 1647.91 380 1670V1725C380 1733.28 373.284 1740 365 1740H315C306.716 1740 300 1733.28 300 1725V1670Z" fill="white"/>
<path d="M380 1580C380 1602.09 362.091 1620 340 1620C317.909 1620 300 1602.09 300 1580C300 1557.91 317.909 1540 340 1540C362.091 1540 380 1557.91 380 1580Z" fill="white"/>
<path d="M400 1670C400 1647.91 417.909 1630 440 1630C462.091 1630 480 1647.91 480 1670V1725C480 1733.28 473.284 1740 465 1740H415C406.716 1740 400 1733.28 400 1725V1670Z" fill="white"/>
<path d="M480 1580C480 1602.09 462.091 1620 440 1620C417.909 1620 400 1602.09 400 1580C400 1557.91 417.909 1540 440 1540C462.091 1540 480 1557.91 480 1580Z" fill="white"/>
<path d="M500 1670C500 1647.91 517.909 1630 540 1630C562.091 1630 580 1647.91 580 1670V1725C580 1733.28 573.284 1740 565 1740H515C506.716 1740 500 1733.28 500 1725V1670Z" fill="white"/>
<path d="M580 1580C580 1602.09 562.091 1620 540 1620C517.909 1620 500 1602.09 500 1580C500 1557.91 517.909 1540 540 1540C562.091 1540 580 1557.91 580 1580Z" fill="white"/>
<path d="M600 1670C600 1647.91 617.909 1630 640 1630C662.091 1630 680 1647.91 680 1670V1725C680 1733.28 673.284 1740 665 1740H615C606.716 1740 600 1733.28 600 1725V1670Z" fill="white"/>
<path d="M680 1580C680 1602.09 662.091 1620 640 1620C617.909 1620 600 1602.09 600 1580C600 1557.91 617.909 1540 640 1540C662.091 1540 680 1557.91 680 1580Z" fill="white"/>
<path d="M700 1670C700 1647.91 717.909 1630 740 1630C762.091 1630 780 1647.91 780 1670V1725C780 1733.28 773.284 1740 765 1740H715C706.716 1740 700 1733.28 700 1725V1670Z" fill="white"/>
<path d="M780 1580C780 1602.09 762.091 1620 740 1620C717.909 1620 700 1602.09 700 1580C700 1557.91 717.909 1540 740 1540C762.091 1540 780 1557.91 780 1580Z" fill="white"/>
<path d="M1100 1010C1100 987.909 1117.91 970 1140 970C1162.09 970 1180 987.909 1180 1010V1065C1180 1073.28 1173.28 1080 1165 1080H1115C1106.72 1080 1100 1073.28 1100 1065V1010Z" fill="white"/>
<path d="M1180 920C1180 942.091 1162.09 960 1140 960C1117.91 960 1100 942.091 1100 920C1100 897.909 1117.91 880 1140 880C1162.09 880 1180 897.909 1180 920Z" fill="white"/>
<path d="M1200 1010C1200 987.909 1217.91 970 1240 970C1262.09 970 1280 987.909 1280 1010V1065C1280 1073.28 1273.28 1080 1265 1080H1215C1206.72 1080 1200 1073.28 1200 1065V1010Z" fill="white"/>
<path d="M1280 920C1280 942.091 1262.09 960 1240 960C1217.91 960 1200 942.091 1200 920C1200 897.909 1217.91 880 1240 880C1262.09 880 1280 897.909 1280 920Z" fill="white"/>
<path d="M1300 1010C1300 987.909 1317.91 970 1340 970C1362.09 970 1380 987.909 1380 1010V1065C1380 1073.28 1373.28 1080 1365 1080H1315C1306.72 1080 1300 1073.28 1300 1065V1010Z" fill="white"/>
<path d="M1380 920C1380 942.091 1362.09 960 1340 960C1317.91 960 1300 942.091 1300 920C1300 897.909 1317.91 880 1340 880C1362.09 880 1380 897.909 1380 920Z" fill="white"/>
<path d="M1400 1010C1400 987.909 1417.91 970 1440 970C1462.09 970 1480 987.909 1480 1010V1065C1480 1073.28 1473.28 1080 1465 1080H1415C1406.72 1080 1400 1073.28 1400 1065V1010Z" fill="white"/>
<path d="M1480 920C1480 942.091 1462.09 960 1440 960C1417.91 960 1400 942.091 1400 920C1400 897.909 1417.91 880 1440 880C1462.09 880 1480 897.909 1480 920Z" fill="white"/>
<path d="M1500 1010C1500 987.909 1517.91 970 1540 970C1562.09 970 1580 987.909 1580 1010V1065C1580 1073.28 1573.28 1080 1565 1080H1515C1506.72 1080 1500 1073.28 1500 1065V1010Z" fill="white"/>
<path d="M1580 920C1580 942.091 1562.09 960 1540 960C1517.91 960 1500 942.091 1500 920C1500 897.909 1517.91 880 1540 880C1562.09 880 1580 897.909 1580 920Z" fill="white"/>
<path d="M1600 1010C1600 987.909 1617.91 970 1640 970C1662.09 970 1680 987.909 1680 1010V1065C1680 1073.28 1673.28 1080 1665 1080H1615C1606.72 1080 1600 1073.28 1600 1065V1010Z" fill="white"/>
<path d="M1680 920C1680 942.091 1662.09 960 1640 960C1617.91 960 1600 942.091 1600 920C1600 897.909 1617.91 880 1640 880C1662.09 880 1680 897.909 1680 920Z" fill="white"/>
<path d="M1900 1010C1900 987.909 1917.91 970 1940 970C1962.09 970 1980 987.909 1980 1010V1065C1980 1073.28 1973.28 1080 1965 1080H1915C1906.72 1080 1900 1073.28 1900 1065V1010Z" fill="white"/>
<path d="M1980 920C1980 942.091 1962.09 960 1940 960C1917.91 960 1900 942.091 1900 920C1900 897.909 1917.91 880 1940 880C1962.09 880 1980 897.909 1980 920Z" fill="white"/>
<path d="M2000 1010C2000 987.909 2017.91 970 2040 970C2062.09 970 2080 987.909 2080 1010V1065C2080 1073.28 2073.28 1080 2065 1080H2015C2006.72 1080 2000 1073.28 2000 1065V1010Z" fill="white"/>
<path d="M2080 920C2080 942.091 2062.09 960 2040 960C2017.91 960 2000 942.091 2000 920C2000 897.909 2017.91 880 2040 880C2062.09 880 2080 897.909 2080 920Z" fill="white"/>
<path d="M1700 1010C1700 987.909 1717.91 970 1740 970C1762.09 970 1780 987.909 1780 1010V1065C1780 1073.28 1773.28 1080 1765 1080H1715C1706.72 1080 1700 1073.28 1700 1065V1010Z" fill="white"/>
<path d="M1780 920C1780 942.091 1762.09 960 1740 960C1717.91 960 1700 942.091 1700 920C1700 897.909 1717.91 880 1740 880C1762.09 880 1780 897.909 1780 920Z" fill="white"/>
<path d="M1800 1010C1800 987.909 1817.91 970 1840 970C1862.09 970 1880 987.909 1880 1010V1065C1880 1073.28 1873.28 1080 1865 1080H1815C1806.72 1080 1800 1073.28 1800 1065V1010Z" fill="white"/>
<path d="M1880 920C1880 942.091 1862.09 960 1840 960C1817.91 960 1800 942.091 1800 920C1800 897.909 1817.91 880 1840 880C1862.09 880 1880 897.909 1880 920Z" fill="white"/>
<path d="M1100 1230C1100 1207.91 1117.91 1190 1140 1190C1162.09 1190 1180 1207.91 1180 1230V1285C1180 1293.28 1173.28 1300 1165 1300H1115C1106.72 1300 1100 1293.28 1100 1285V1230Z" fill="white"/>
<path d="M1180 1140C1180 1162.09 1162.09 1180 1140 1180C1117.91 1180 1100 1162.09 1100 1140C1100 1117.91 1117.91 1100 1140 1100C1162.09 1100 1180 1117.91 1180 1140Z" fill="white"/>
<path d="M1200 1230C1200 1207.91 1217.91 1190 1240 1190C1262.09 1190 1280 1207.91 1280 1230V1285C1280 1293.28 1273.28 1300 1265 1300H1215C1206.72 1300 1200 1293.28 1200 1285V1230Z" fill="white"/>
<path d="M1280 1140C1280 1162.09 1262.09 1180 1240 1180C1217.91 1180 1200 1162.09 1200 1140C1200 1117.91 1217.91 1100 1240 1100C1262.09 1100 1280 1117.91 1280 1140Z" fill="white"/>
<path d="M1300 1230C1300 1207.91 1317.91 1190 1340 1190C1362.09 1190 1380 1207.91 1380 1230V1285C1380 1293.28 1373.28 1300 1365 1300H1315C1306.72 1300 1300 1293.28 1300 1285V1230Z" fill="white"/>
<path d="M1380 1140C1380 1162.09 1362.09 1180 1340 1180C1317.91 1180 1300 1162.09 1300 1140C1300 1117.91 1317.91 1100 1340 1100C1362.09 1100 1380 1117.91 1380 1140Z" fill="white"/>
<path d="M1400 1230C1400 1207.91 1417.91 1190 1440 1190C1462.09 1190 1480 1207.91 1480 1230V1285C1480 1293.28 1473.28 1300 1465 1300H1415C1406.72 1300 1400 1293.28 1400 1285V1230Z" fill="white"/>
<path d="M1480 1140C1480 1162.09 1462.09 1180 1440 1180C1417.91 1180 1400 1162.09 1400 1140C1400 1117.91 1417.91 1100 1440 1100C1462.09 1100 1480 1117.91 1480 1140Z" fill="white"/>
<path d="M1500 1230C1500 1207.91 1517.91 1190 1540 1190C1562.09 1190 1580 1207.91 1580 1230V1285C1580 1293.28 1573.28 1300 1565 1300H1515C1506.72 1300 1500 1293.28 1500 1285V1230Z" fill="white"/>
<path d="M1580 1140C1580 1162.09 1562.09 1180 1540 1180C1517.91 1180 1500 1162.09 1500 1140C1500 1117.91 1517.91 1100 1540 1100C1562.09 1100 1580 1117.91 1580 1140Z" fill="white"/>
<path d="M1600 1230C1600 1207.91 1617.91 1190 1640 1190C1662.09 1190 1680 1207.91 1680 1230V1285C1680 1293.28 1673.28 1300 1665 1300H1615C1606.72 1300 1600 1293.28 1600 1285V1230Z" fill="white"/>
<path d="M1680 1140C1680 1162.09 1662.09 1180 1640 1180C1617.91 1180 1600 1162.09 1600 1140C1600 1117.91 1617.91 1100 1640 1100C1662.09 1100 1680 1117.91 1680 1140Z" fill="white"/>
<path d="M1900 1230C1900 1207.91 1917.91 1190 1940 1190C1962.09 1190 1980 1207.91 1980 1230V1285C1980 1293.28 1973.28 1300 1965 1300H1915C1906.72 1300 1900 1293.28 1900 1285V1230Z" fill="white"/>
<path d="M1980 1140C1980 1162.09 1962.09 1180 1940 1180C1917.91 1180 1900 1162.09 1900 1140C1900 1117.91 1917.91 1100 1940 1100C1962.09 1100 1980 1117.91 1980 1140Z" fill="white"/>
<path d="M2000 1230C2000 1207.91 2017.91 1190 2040 1190C2062.09 1190 2080 1207.91 2080 1230V1285C2080 1293.28 2073.28 1300 2065 1300H2015C2006.72 1300 2000 1293.28 2000 1285V1230Z" fill="white"/>
<path d="M2080 1140C2080 1162.09 2062.09 1180 2040 1180C2017.91 1180 2000 1162.09 2000 1140C2000 1117.91 2017.91 1100 2040 1100C2062.09 1100 2080 1117.91 2080 1140Z" fill="white"/>
<path d="M1700 1230C1700 1207.91 1717.91 1190 1740 1190C1762.09 1190 1780 1207.91 1780 1230V1285C1780 1293.28 1773.28 1300 1765 1300H1715C1706.72 1300 1700 1293.28 1700 1285V1230Z" fill="white"/>
<path d="M1780 1140C1780 1162.09 1762.09 1180 1740 1180C1717.91 1180 1700 1162.09 1700 1140C1700 1117.91 1717.91 1100 1740 1100C1762.09 1100 1780 1117.91 1780 1140Z" fill="white"/>
<path d="M1800 1230C1800 1207.91 1817.91 1190 1840 1190C1862.09 1190 1880 1207.91 1880 1230V1285C1880 1293.28 1873.28 1300 1865 1300H1815C1806.72 1300 1800 1293.28 1800 1285V1230Z" fill="white"/>
<path d="M1880 1140C1880 1162.09 1862.09 1180 1840 1180C1817.91 1180 1800 1162.09 1800 1140C1800 1117.91 1817.91 1100 1840 1100C1862.09 1100 1880 1117.91 1880 1140Z" fill="white"/>
<path d="M1100 1450C1100 1427.91 1117.91 1410 1140 1410C1162.09 1410 1180 1427.91 1180 1450V1505C1180 1513.28 1173.28 1520 1165 1520H1115C1106.72 1520 1100 1513.28 1100 1505V1450Z" fill="white"/>
<path d="M1180 1360C1180 1382.09 1162.09 1400 1140 1400C1117.91 1400 1100 1382.09 1100 1360C1100 1337.91 1117.91 1320 1140 1320C1162.09 1320 1180 1337.91 1180 1360Z" fill="white"/>
<path d="M1200 1450C1200 1427.91 1217.91 1410 1240 1410C1262.09 1410 1280 1427.91 1280 1450V1505C1280 1513.28 1273.28 1520 1265 1520H1215C1206.72 1520 1200 1513.28 1200 1505V1450Z" fill="white"/>
<path d="M1280 1360C1280 1382.09 1262.09 1400 1240 1400C1217.91 1400 1200 1382.09 1200 1360C1200 1337.91 1217.91 1320 1240 1320C1262.09 1320 1280 1337.91 1280 1360Z" fill="white"/>
<path d="M1300 1450C1300 1427.91 1317.91 1410 1340 1410C1362.09 1410 1380 1427.91 1380 1450V1505C1380 1513.28 1373.28 1520 1365 1520H1315C1306.72 1520 1300 1513.28 1300 1505V1450Z" fill="white"/>
<path d="M1380 1360C1380 1382.09 1362.09 1400 1340 1400C1317.91 1400 1300 1382.09 1300 1360C1300 1337.91 1317.91 1320 1340 1320C1362.09 1320 1380 1337.91 1380 1360Z" fill="white"/>
<path d="M1400 1450C1400 1427.91 1417.91 1410 1440 1410C1462.09 1410 1480 1427.91 1480 1450V1505C1480 1513.28 1473.28 1520 1465 1520H1415C1406.72 1520 1400 1513.28 1400 1505V1450Z" fill="white"/>
<path d="M1480 1360C1480 1382.09 1462.09 1400 1440 1400C1417.91 1400 1400 1382.09 1400 1360C1400 1337.91 1417.91 1320 1440 1320C1462.09 1320 1480 1337.91 1480 1360Z" fill="white"/>
<path d="M1500 1450C1500 1427.91 1517.91 1410 1540 1410C1562.09 1410 1580 1427.91 1580 1450V1505C1580 1513.28 1573.28 1520 1565 1520H1515C1506.72 1520 1500 1513.28 1500 1505V1450Z" fill="white"/>
<path d="M1580 1360C1580 1382.09 1562.09 1400 1540 1400C1517.91 1400 1500 1382.09 1500 1360C1500 1337.91 1517.91 1320 1540 1320C1562.09 1320 1580 1337.91 1580 1360Z" fill="white"/>
<path d="M1600 1450C1600 1427.91 1617.91 1410 1640 1410C1662.09 1410 1680 1427.91 1680 1450V1505C1680 1513.28 1673.28 1520 1665 1520H1615C1606.72 1520 1600 1513.28 1600 1505V1450Z" fill="white"/>
<path d="M1680 1360C1680 1382.09 1662.09 1400 1640 1400C1617.91 1400 1600 1382.09 1600 1360C1600 1337.91 1617.91 1320 1640 1320C1662.09 1320 1680 1337.91 1680 1360Z" fill="white"/>
<path d="M1900 1450C1900 1427.91 1917.91 1410 1940 1410C1962.09 1410 1980 1427.91 1980 1450V1505C1980 1513.28 1973.28 1520 1965 1520H1915C1906.72 1520 1900 1513.28 1900 1505V1450Z" fill="white"/>
<path d="M1980 1360C1980 1382.09 1962.09 1400 1940 1400C1917.91 1400 1900 1382.09 1900 1360C1900 1337.91 1917.91 1320 1940 1320C1962.09 1320 1980 1337.91 1980 1360Z" fill="white"/>
<path d="M2000 1450C2000 1427.91 2017.91 1410 2040 1410C2062.09 1410 2080 1427.91 2080 1450V1505C2080 1513.28 2073.28 1520 2065 1520H2015C2006.72 1520 2000 1513.28 2000 1505V1450Z" fill="white"/>
<path d="M2080 1360C2080 1382.09 2062.09 1400 2040 1400C2017.91 1400 2000 1382.09 2000 1360C2000 1337.91 2017.91 1320 2040 1320C2062.09 1320 2080 1337.91 2080 1360Z" fill="white"/>
<path d="M1700 1450C1700 1427.91 1717.91 1410 1740 1410C1762.09 1410 1780 1427.91 1780 1450V1505C1780 1513.28 1773.28 1520 1765 1520H1715C1706.72 1520 1700 1513.28 1700 1505V1450Z" fill="white"/>
<path d="M1780 1360C1780 1382.09 1762.09 1400 1740 1400C1717.91 1400 1700 1382.09 1700 1360C1700 1337.91 1717.91 1320 1740 1320C1762.09 1320 1780 1337.91 1780 1360Z" fill="white"/>
<path d="M1800 1450C1800 1427.91 1817.91 1410 1840 1410C1862.09 1410 1880 1427.91 1880 1450V1505C1880 1513.28 1873.28 1520 1865 1520H1815C1806.72 1520 1800 1513.28 1800 1505V1450Z" fill="white"/>
<path d="M1880 1360C1880 1382.09 1862.09 1400 1840 1400C1817.91 1400 1800 1382.09 1800 1360C1800 1337.91 1817.91 1320 1840 1320C1862.09 1320 1880 1337.91 1880 1360Z" fill="white"/>
<path d="M1300 1670C1300 1647.91 1317.91 1630 1340 1630C1362.09 1630 1380 1647.91 1380 1670V1725C1380 1733.28 1373.28 1740 1365 1740H1315C1306.72 1740 1300 1733.28 1300 1725V1670Z" fill="white"/>
<path d="M1380 1580C1380 1602.09 1362.09 1620 1340 1620C1317.91 1620 1300 1602.09 1300 1580C1300 1557.91 1317.91 1540 1340 1540C1362.09 1540 1380 1557.91 1380 1580Z" fill="white"/>
<path d="M1400 1670C1400 1647.91 1417.91 1630 1440 1630C1462.09 1630 1480 1647.91 1480 1670V1725C1480 1733.28 1473.28 1740 1465 1740H1415C1406.72 1740 1400 1733.28 1400 1725V1670Z" fill="white"/>
<path d="M1480 1580C1480 1602.09 1462.09 1620 1440 1620C1417.91 1620 1400 1602.09 1400 1580C1400 1557.91 1417.91 1540 1440 1540C1462.09 1540 1480 1557.91 1480 1580Z" fill="white"/>
<path d="M1500 1670C1500 1647.91 1517.91 1630 1540 1630C1562.09 1630 1580 1647.91 1580 1670V1725C1580 1733.28 1573.28 1740 1565 1740H1515C1506.72 1740 1500 1733.28 1500 1725V1670Z" fill="white"/>
<path d="M1580 1580C1580 1602.09 1562.09 1620 1540 1620C1517.91 1620 1500 1602.09 1500 1580C1500 1557.91 1517.91 1540 1540 1540C1562.09 1540 1580 1557.91 1580 1580Z" fill="white"/>
<path d="M1600 1670C1600 1647.91 1617.91 1630 1640 1630C1662.09 1630 1680 1647.91 1680 1670V1725C1680 1733.28 1673.28 1740 1665 1740H1615C1606.72 1740 1600 1733.28 1600 1725V1670Z" fill="white"/>
<path d="M1680 1580C1680 1602.09 1662.09 1620 1640 1620C1617.91 1620 1600 1602.09 1600 1580C1600 1557.91 1617.91 1540 1640 1540C1662.09 1540 1680 1557.91 1680 1580Z" fill="white"/>
<path d="M1900 1670C1900 1647.91 1917.91 1630 1940 1630C1962.09 1630 1980 1647.91 1980 1670V1725C1980 1733.28 1973.28 1740 1965 1740H1915C1906.72 1740 1900 1733.28 1900 1725V1670Z" fill="white"/>
<path d="M1980 1580C1980 1602.09 1962.09 1620 1940 1620C1917.91 1620 1900 1602.09 1900 1580C1900 1557.91 1917.91 1540 1940 1540C1962.09 1540 1980 1557.91 1980 1580Z" fill="white"/>
<path d="M2000 1670C2000 1647.91 2017.91 1630 2040 1630C2062.09 1630 2080 1647.91 2080 1670V1725C2080 1733.28 2073.28 1740 2065 1740H2015C2006.72 1740 2000 1733.28 2000 1725V1670Z" fill="white"/>
<path d="M2080 1580C2080 1602.09 2062.09 1620 2040 1620C2017.91 1620 2000 1602.09 2000 1580C2000 1557.91 2017.91 1540 2040 1540C2062.09 1540 2080 1557.91 2080 1580Z" fill="white"/>
<path d="M1700 1670C1700 1647.91 1717.91 1630 1740 1630C1762.09 1630 1780 1647.91 1780 1670V1725C1780 1733.28 1773.28 1740 1765 1740H1715C1706.72 1740 1700 1733.28 1700 1725V1670Z" fill="white"/>
<path d="M1780 1580C1780 1602.09 1762.09 1620 1740 1620C1717.91 1620 1700 1602.09 1700 1580C1700 1557.91 1717.91 1540 1740 1540C1762.09 1540 1780 1557.91 1780 1580Z" fill="white"/>
<path d="M1800 1670C1800 1647.91 1817.91 1630 1840 1630C1862.09 1630 1880 1647.91 1880 1670V1725C1880 1733.28 1873.28 1740 1865 1740H1815C1806.72 1740 1800 1733.28 1800 1725V1670Z" fill="white"/>
<path d="M1880 1580C1880 1602.09 1862.09 1620 1840 1620C1817.91 1620 1800 1602.09 1800 1580C1800 1557.91 1817.91 1540 1840 1540C1862.09 1540 1880 1557.91 1880 1580Z" fill="white"/>
<path d="M0 1890C0 1867.91 17.9086 1850 40 1850C62.0914 1850 80 1867.91 80 1890V1945C80 1953.28 73.2843 1960 65 1960H15C6.71573 1960 0 1953.28 0 1945V1890Z" fill="white"/>
<path d="M80 1800C80 1822.09 62.0914 1840 40 1840C17.9086 1840 0 1822.09 0 1800C0 1777.91 17.9086 1760 40 1760C62.0914 1760 80 1777.91 80 1800Z" fill="white"/>
<path d="M100 1890C100 1867.91 117.909 1850 140 1850C162.091 1850 180 1867.91 180 1890V1945C180 1953.28 173.284 1960 165 1960H115C106.716 1960 100 1953.28 100 1945V1890Z" fill="white"/>
<path d="M180 1800C180 1822.09 162.091 1840 140 1840C117.909 1840 100 1822.09 100 1800C100 1777.91 117.909 1760 140 1760C162.091 1760 180 1777.91 180 1800Z" fill="white"/>
<path d="M200 1890C200 1867.91 217.909 1850 240 1850C262.091 1850 280 1867.91 280 1890V1945C280 1953.28 273.284 1960 265 1960H215C206.716 1960 200 1953.28 200 1945V1890Z" fill="white"/>
<path d="M280 1800C280 1822.09 262.091 1840 240 1840C217.909 1840 200 1822.09 200 1800C200 1777.91 217.909 1760 240 1760C262.091 1760 280 1777.91 280 1800Z" fill="white"/>
<path d="M300 1890C300 1867.91 317.909 1850 340 1850C362.091 1850 380 1867.91 380 1890V1945C380 1953.28 373.284 1960 365 1960H315C306.716 1960 300 1953.28 300 1945V1890Z" fill="white"/>
<path d="M380 1800C380 1822.09 362.091 1840 340 1840C317.909 1840 300 1822.09 300 1800C300 1777.91 317.909 1760 340 1760C362.091 1760 380 1777.91 380 1800Z" fill="white"/>
<path d="M400 1890C400 1867.91 417.909 1850 440 1850C462.091 1850 480 1867.91 480 1890V1945C480 1953.28 473.284 1960 465 1960H415C406.716 1960 400 1953.28 400 1945V1890Z" fill="white"/>
<path d="M480 1800C480 1822.09 462.091 1840 440 1840C417.909 1840 400 1822.09 400 1800C400 1777.91 417.909 1760 440 1760C462.091 1760 480 1777.91 480 1800Z" fill="white"/>
<path d="M500 1890C500 1867.91 517.909 1850 540 1850C562.091 1850 580 1867.91 580 1890V1945C580 1953.28 573.284 1960 565 1960H515C506.716 1960 500 1953.28 500 1945V1890Z" fill="white"/>
<path d="M580 1800C580 1822.09 562.091 1840 540 1840C517.909 1840 500 1822.09 500 1800C500 1777.91 517.909 1760 540 1760C562.091 1760 580 1777.91 580 1800Z" fill="white"/>
<path d="M600 1890C600 1867.91 617.909 1850 640 1850C662.091 1850 680 1867.91 680 1890V1945C680 1953.28 673.284 1960 665 1960H615C606.716 1960 600 1953.28 600 1945V1890Z" fill="white"/>
<path d="M680 1800C680 1822.09 662.091 1840 640 1840C617.909 1840 600 1822.09 600 1800C600 1777.91 617.909 1760 640 1760C662.091 1760 680 1777.91 680 1800Z" fill="white"/>
<path d="M700 1890C700 1867.91 717.909 1850 740 1850C762.091 1850 780 1867.91 780 1890V1945C780 1953.28 773.284 1960 765 1960H715C706.716 1960 700 1953.28 700 1945V1890Z" fill="white"/>
<path d="M780 1800C780 1822.09 762.091 1840 740 1840C717.909 1840 700 1822.09 700 1800C700 1777.91 717.909 1760 740 1760C762.091 1760 780 1777.91 780 1800Z" fill="white"/>
<path d="M0 2110C0 2087.91 17.9086 2070 40 2070C62.0914 2070 80 2087.91 80 2110V2165C80 2173.28 73.2843 2180 65 2180H15C6.71573 2180 0 2173.28 0 2165V2110Z" fill="white"/>
<path d="M80 2020C80 2042.09 62.0914 2060 40 2060C17.9086 2060 0 2042.09 0 2020C0 1997.91 17.9086 1980 40 1980C62.0914 1980 80 1997.91 80 2020Z" fill="white"/>
<path d="M100 2110C100 2087.91 117.909 2070 140 2070C162.091 2070 180 2087.91 180 2110V2165C180 2173.28 173.284 2180 165 2180H115C106.716 2180 100 2173.28 100 2165V2110Z" fill="white"/>
<path d="M180 2020C180 2042.09 162.091 2060 140 2060C117.909 2060 100 2042.09 100 2020C100 1997.91 117.909 1980 140 1980C162.091 1980 180 1997.91 180 2020Z" fill="white"/>
<path d="M200 2110C200 2087.91 217.909 2070 240 2070C262.091 2070 280 2087.91 280 2110V2165C280 2173.28 273.284 2180 265 2180H215C206.716 2180 200 2173.28 200 2165V2110Z" fill="white"/>
<path d="M280 2020C280 2042.09 262.091 2060 240 2060C217.909 2060 200 2042.09 200 2020C200 1997.91 217.909 1980 240 1980C262.091 1980 280 1997.91 280 2020Z" fill="white"/>
<path d="M300 2110C300 2087.91 317.909 2070 340 2070C362.091 2070 380 2087.91 380 2110V2165C380 2173.28 373.284 2180 365 2180H315C306.716 2180 300 2173.28 300 2165V2110Z" fill="white"/>
<path d="M380 2020C380 2042.09 362.091 2060 340 2060C317.909 2060 300 2042.09 300 2020C300 1997.91 317.909 1980 340 1980C362.091 1980 380 1997.91 380 2020Z" fill="white"/>
<path d="M400 2110C400 2087.91 417.909 2070 440 2070C462.091 2070 480 2087.91 480 2110V2165C480 2173.28 473.284 2180 465 2180H415C406.716 2180 400 2173.28 400 2165V2110Z" fill="white"/>
<path d="M480 2020C480 2042.09 462.091 2060 440 2060C417.909 2060 400 2042.09 400 2020C400 1997.91 417.909 1980 440 1980C462.091 1980 480 1997.91 480 2020Z" fill="white"/>
<path d="M500 2110C500 2087.91 517.909 2070 540 2070C562.091 2070 580 2087.91 580 2110V2165C580 2173.28 573.284 2180 565 2180H515C506.716 2180 500 2173.28 500 2165V2110Z" fill="white"/>
<path d="M580 2020C580 2042.09 562.091 2060 540 2060C517.909 2060 500 2042.09 500 2020C500 1997.91 517.909 1980 540 1980C562.091 1980 580 1997.91 580 2020Z" fill="white"/>
<path d="M600 2110C600 2087.91 617.909 2070 640 2070C662.091 2070 680 2087.91 680 2110V2165C680 2173.28 673.284 2180 665 2180H615C606.716 2180 600 2173.28 600 2165V2110Z" fill="white"/>
<path d="M680 2020C680 2042.09 662.091 2060 640 2060C617.909 2060 600 2042.09 600 2020C600 1997.91 617.909 1980 640 1980C662.091 1980 680 1997.91 680 2020Z" fill="white"/>
<path d="M700 2110C700 2087.91 717.909 2070 740 2070C762.091 2070 780 2087.91 780 2110V2165C780 2173.28 773.284 2180 765 2180H715C706.716 2180 700 2173.28 700 2165V2110Z" fill="white"/>
<path d="M780 2020C780 2042.09 762.091 2060 740 2060C717.909 2060 700 2042.09 700 2020C700 1997.91 717.909 1980 740 1980C762.091 1980 780 1997.91 780 2020Z" fill="white"/>
<path d="M0 2330C0 2307.91 17.9086 2290 40 2290C62.0914 2290 80 2307.91 80 2330V2385C80 2393.28 73.2843 2400 65 2400H15C6.71573 2400 0 2393.28 0 2385V2330Z" fill="white"/>
<path d="M80 2240C80 2262.09 62.0914 2280 40 2280C17.9086 2280 0 2262.09 0 2240C0 2217.91 17.9086 2200 40 2200C62.0914 2200 80 2217.91 80 2240Z" fill="white"/>
<path d="M100 2330C100 2307.91 117.909 2290 140 2290C162.091 2290 180 2307.91 180 2330V2385C180 2393.28 173.284 2400 165 2400H115C106.716 2400 100 2393.28 100 2385V2330Z" fill="white"/>
<path d="M180 2240C180 2262.09 162.091 2280 140 2280C117.909 2280 100 2262.09 100 2240C100 2217.91 117.909 2200 140 2200C162.091 2200 180 2217.91 180 2240Z" fill="white"/>
<path d="M200 2330C200 2307.91 217.909 2290 240 2290C262.091 2290 280 2307.91 280 2330V2385C280 2393.28 273.284 2400 265 2400H215C206.716 2400 200 2393.28 200 2385V2330Z" fill="white"/>
<path d="M280 2240C280 2262.09 262.091 2280 240 2280C217.909 2280 200 2262.09 200 2240C200 2217.91 217.909 2200 240 2200C262.091 2200 280 2217.91 280 2240Z" fill="white"/>
<path d="M300 2330C300 2307.91 317.909 2290 340 2290C362.091 2290 380 2307.91 380 2330V2385C380 2393.28 373.284 2400 365 2400H315C306.716 2400 300 2393.28 300 2385V2330Z" fill="white"/>
<path d="M380 2240C380 2262.09 362.091 2280 340 2280C317.909 2280 300 2262.09 300 2240C300 2217.91 317.909 2200 340 2200C362.091 2200 380 2217.91 380 2240Z" fill="white"/>
<path d="M400 2330C400 2307.91 417.909 2290 440 2290C462.091 2290 480 2307.91 480 2330V2385C480 2393.28 473.284 2400 465 2400H415C406.716 2400 400 2393.28 400 2385V2330Z" fill="white"/>
<path d="M480 2240C480 2262.09 462.091 2280 440 2280C417.909 2280 400 2262.09 400 2240C400 2217.91 417.909 2200 440 2200C462.091 2200 480 2217.91 480 2240Z" fill="white"/>
<path d="M500 2330C500 2307.91 517.909 2290 540 2290C562.091 2290 580 2307.91 580 2330V2385C580 2393.28 573.284 2400 565 2400H515C506.716 2400 500 2393.28 500 2385V2330Z" fill="white"/>
<path d="M580 2240C580 2262.09 562.091 2280 540 2280C517.909 2280 500 2262.09 500 2240C500 2217.91 517.909 2200 540 2200C562.091 2200 580 2217.91 580 2240Z" fill="white"/>
<path d="M1000 1450C1000 1427.91 1017.91 1410 1040 1410C1062.09 1410 1080 1427.91 1080 1450V1505C1080 1513.28 1073.28 1520 1065 1520H1015C1006.72 1520 1000 1513.28 1000 1505V1450Z" fill="white"/>
<path d="M1080 1360C1080 1382.09 1062.09 1400 1040 1400C1017.91 1400 1000 1382.09 1000 1360C1000 1337.91 1017.91 1320 1040 1320C1062.09 1320 1080 1337.91 1080 1360Z" fill="white"/>
<path d="M1000 1230C1000 1207.91 1017.91 1190 1040 1190C1062.09 1190 1080 1207.91 1080 1230V1285C1080 1293.28 1073.28 1300 1065 1300H1015C1006.72 1300 1000 1293.28 1000 1285V1230Z" fill="white"/>
<path d="M1080 1140C1080 1162.09 1062.09 1180 1040 1180C1017.91 1180 1000 1162.09 1000 1140C1000 1117.91 1017.91 1100 1040 1100C1062.09 1100 1080 1117.91 1080 1140Z" fill="white"/>
<path d="M1000 350C1000 327.909 1017.91 310 1040 310C1062.09 310 1080 327.909 1080 350V405C1080 413.284 1073.28 420 1065 420H1015C1006.72 420 1000 413.284 1000 405V350Z" fill="white"/>
<path d="M1080 260C1080 282.091 1062.09 300 1040 300C1017.91 300 1000 282.091 1000 260C1000 237.909 1017.91 220 1040 220C1062.09 220 1080 237.909 1080 260Z" fill="white"/>
<path d="M1000 130C1000 107.909 1017.91 90 1040 90C1062.09 90 1080 107.909 1080 130V185C1080 193.284 1073.28 200 1065 200H1015C1006.72 200 1000 193.284 1000 185V130Z" fill="white"/>
<path d="M1080 40C1080 62.0914 1062.09 80 1040 80C1017.91 80 1000 62.0914 1000 40C1000 17.9086 1017.91 0 1040 0C1062.09 0 1080 17.9086 1080 40Z" fill="white"/>
<path d="M0 2550C0 2527.91 17.9086 2510 40 2510C62.0914 2510 80 2527.91 80 2550V2605C80 2613.28 73.2843 2620 65 2620H15C6.71573 2620 0 2613.28 0 2605V2550Z" fill="white"/>
<path d="M80 2460C80 2482.09 62.0914 2500 40 2500C17.9086 2500 0 2482.09 0 2460C0 2437.91 17.9086 2420 40 2420C62.0914 2420 80 2437.91 80 2460Z" fill="white"/>
<path d="M100 2550C100 2527.91 117.909 2510 140 2510C162.091 2510 180 2527.91 180 2550V2605C180 2613.28 173.284 2620 165 2620H115C106.716 2620 100 2613.28 100 2605V2550Z" fill="white"/>
<path d="M180 2460C180 2482.09 162.091 2500 140 2500C117.909 2500 100 2482.09 100 2460C100 2437.91 117.909 2420 140 2420C162.091 2420 180 2437.91 180 2460Z" fill="white"/>
<path d="M200 2550C200 2527.91 217.909 2510 240 2510C262.091 2510 280 2527.91 280 2550V2605C280 2613.28 273.284 2620 265 2620H215C206.716 2620 200 2613.28 200 2605V2550Z" fill="white"/>
<path d="M280 2460C280 2482.09 262.091 2500 240 2500C217.909 2500 200 2482.09 200 2460C200 2437.91 217.909 2420 240 2420C262.091 2420 280 2437.91 280 2460Z" fill="white"/>
<path d="M300 2550C300 2527.91 317.909 2510 340 2510C362.091 2510 380 2527.91 380 2550V2605C380 2613.28 373.284 2620 365 2620H315C306.716 2620 300 2613.28 300 2605V2550Z" fill="white"/>
<path d="M380 2460C380 2482.09 362.091 2500 340 2500C317.909 2500 300 2482.09 300 2460C300 2437.91 317.909 2420 340 2420C362.091 2420 380 2437.91 380 2460Z" fill="white"/>
<path d="M400 2550C400 2527.91 417.909 2510 440 2510C462.091 2510 480 2527.91 480 2550V2605C480 2613.28 473.284 2620 465 2620H415C406.716 2620 400 2613.28 400 2605V2550Z" fill="white"/>
<path d="M480 2460C480 2482.09 462.091 2500 440 2500C417.909 2500 400 2482.09 400 2460C400 2437.91 417.909 2420 440 2420C462.091 2420 480 2437.91 480 2460Z" fill="white"/>
<path d="M500 2550C500 2527.91 517.909 2510 540 2510C562.091 2510 580 2527.91 580 2550V2605C580 2613.28 573.284 2620 565 2620H515C506.716 2620 500 2613.28 500 2605V2550Z" fill="white"/>
<path d="M580 2460C580 2482.09 562.091 2500 540 2500C517.909 2500 500 2482.09 500 2460C500 2437.91 517.909 2420 540 2420C562.091 2420 580 2437.91 580 2460Z" fill="white"/>
<path d="M1000 790C1000 767.909 1017.91 750 1040 750C1062.09 750 1080 767.909 1080 790V845C1080 853.284 1073.28 860 1065 860H1015C1006.72 860 1000 853.284 1000 845V790Z" fill="white"/>
<path d="M1080 700C1080 722.091 1062.09 740 1040 740C1017.91 740 1000 722.091 1000 700C1000 677.909 1017.91 660 1040 660C1062.09 660 1080 677.909 1080 700Z" fill="white"/>
<path d="M1000 570C1000 547.909 1017.91 530 1040 530C1062.09 530 1080 547.909 1080 570V625C1080 633.284 1073.28 640 1065 640H1015C1006.72 640 1000 633.284 1000 625V570Z" fill="white"/>
<path d="M1080 480C1080 502.091 1062.09 520 1040 520C1017.91 520 1000 502.091 1000 480C1000 457.909 1017.91 440 1040 440C1062.09 440 1080 457.909 1080 480Z" fill="white"/>
<path d="M1300 1890C1300 1867.91 1317.91 1850 1340 1850C1362.09 1850 1380 1867.91 1380 1890V1945C1380 1953.28 1373.28 1960 1365 1960H1315C1306.72 1960 1300 1953.28 1300 1945V1890Z" fill="white"/>
<path d="M1380 1800C1380 1822.09 1362.09 1840 1340 1840C1317.91 1840 1300 1822.09 1300 1800C1300 1777.91 1317.91 1760 1340 1760C1362.09 1760 1380 1777.91 1380 1800Z" fill="white"/>
<path d="M1400 1890C1400 1867.91 1417.91 1850 1440 1850C1462.09 1850 1480 1867.91 1480 1890V1945C1480 1953.28 1473.28 1960 1465 1960H1415C1406.72 1960 1400 1953.28 1400 1945V1890Z" fill="white"/>
<path d="M1480 1800C1480 1822.09 1462.09 1840 1440 1840C1417.91 1840 1400 1822.09 1400 1800C1400 1777.91 1417.91 1760 1440 1760C1462.09 1760 1480 1777.91 1480 1800Z" fill="white"/>
<path d="M1500 1890C1500 1867.91 1517.91 1850 1540 1850C1562.09 1850 1580 1867.91 1580 1890V1945C1580 1953.28 1573.28 1960 1565 1960H1515C1506.72 1960 1500 1953.28 1500 1945V1890Z" fill="white"/>
<path d="M1580 1800C1580 1822.09 1562.09 1840 1540 1840C1517.91 1840 1500 1822.09 1500 1800C1500 1777.91 1517.91 1760 1540 1760C1562.09 1760 1580 1777.91 1580 1800Z" fill="white"/>
<path d="M1600 1890C1600 1867.91 1617.91 1850 1640 1850C1662.09 1850 1680 1867.91 1680 1890V1945C1680 1953.28 1673.28 1960 1665 1960H1615C1606.72 1960 1600 1953.28 1600 1945V1890Z" fill="white"/>
<path d="M1680 1800C1680 1822.09 1662.09 1840 1640 1840C1617.91 1840 1600 1822.09 1600 1800C1600 1777.91 1617.91 1760 1640 1760C1662.09 1760 1680 1777.91 1680 1800Z" fill="white"/>
<path d="M1900 1890C1900 1867.91 1917.91 1850 1940 1850C1962.09 1850 1980 1867.91 1980 1890V1945C1980 1953.28 1973.28 1960 1965 1960H1915C1906.72 1960 1900 1953.28 1900 1945V1890Z" fill="white"/>
<path d="M1980 1800C1980 1822.09 1962.09 1840 1940 1840C1917.91 1840 1900 1822.09 1900 1800C1900 1777.91 1917.91 1760 1940 1760C1962.09 1760 1980 1777.91 1980 1800Z" fill="white"/>
<path d="M2000 1890C2000 1867.91 2017.91 1850 2040 1850C2062.09 1850 2080 1867.91 2080 1890V1945C2080 1953.28 2073.28 1960 2065 1960H2015C2006.72 1960 2000 1953.28 2000 1945V1890Z" fill="white"/>
<path d="M2080 1800C2080 1822.09 2062.09 1840 2040 1840C2017.91 1840 2000 1822.09 2000 1800C2000 1777.91 2017.91 1760 2040 1760C2062.09 1760 2080 1777.91 2080 1800Z" fill="white"/>
<path d="M1700 1890C1700 1867.91 1717.91 1850 1740 1850C1762.09 1850 1780 1867.91 1780 1890V1945C1780 1953.28 1773.28 1960 1765 1960H1715C1706.72 1960 1700 1953.28 1700 1945V1890Z" fill="white"/>
<path d="M1780 1800C1780 1822.09 1762.09 1840 1740 1840C1717.91 1840 1700 1822.09 1700 1800C1700 1777.91 1717.91 1760 1740 1760C1762.09 1760 1780 1777.91 1780 1800Z" fill="white"/>
<path d="M1800 1890C1800 1867.91 1817.91 1850 1840 1850C1862.09 1850 1880 1867.91 1880 1890V1945C1880 1953.28 1873.28 1960 1865 1960H1815C1806.72 1960 1800 1953.28 1800 1945V1890Z" fill="white"/>
<path d="M1880 1800C1880 1822.09 1862.09 1840 1840 1840C1817.91 1840 1800 1822.09 1800 1800C1800 1777.91 1817.91 1760 1840 1760C1862.09 1760 1880 1777.91 1880 1800Z" fill="white"/>
<path d="M1300 2110C1300 2087.91 1317.91 2070 1340 2070C1362.09 2070 1380 2087.91 1380 2110V2165C1380 2173.28 1373.28 2180 1365 2180H1315C1306.72 2180 1300 2173.28 1300 2165V2110Z" fill="white"/>
<path d="M1380 2020C1380 2042.09 1362.09 2060 1340 2060C1317.91 2060 1300 2042.09 1300 2020C1300 1997.91 1317.91 1980 1340 1980C1362.09 1980 1380 1997.91 1380 2020Z" fill="white"/>
<path d="M1400 2110C1400 2087.91 1417.91 2070 1440 2070C1462.09 2070 1480 2087.91 1480 2110V2165C1480 2173.28 1473.28 2180 1465 2180H1415C1406.72 2180 1400 2173.28 1400 2165V2110Z" fill="white"/>
<path d="M1480 2020C1480 2042.09 1462.09 2060 1440 2060C1417.91 2060 1400 2042.09 1400 2020C1400 1997.91 1417.91 1980 1440 1980C1462.09 1980 1480 1997.91 1480 2020Z" fill="white"/>
<path d="M1500 2110C1500 2087.91 1517.91 2070 1540 2070C1562.09 2070 1580 2087.91 1580 2110V2165C1580 2173.28 1573.28 2180 1565 2180H1515C1506.72 2180 1500 2173.28 1500 2165V2110Z" fill="white"/>
<path d="M1580 2020C1580 2042.09 1562.09 2060 1540 2060C1517.91 2060 1500 2042.09 1500 2020C1500 1997.91 1517.91 1980 1540 1980C1562.09 1980 1580 1997.91 1580 2020Z" fill="white"/>
<path d="M1600 2110C1600 2087.91 1617.91 2070 1640 2070C1662.09 2070 1680 2087.91 1680 2110V2165C1680 2173.28 1673.28 2180 1665 2180H1615C1606.72 2180 1600 2173.28 1600 2165V2110Z" fill="white"/>
<path d="M1680 2020C1680 2042.09 1662.09 2060 1640 2060C1617.91 2060 1600 2042.09 1600 2020C1600 1997.91 1617.91 1980 1640 1980C1662.09 1980 1680 1997.91 1680 2020Z" fill="white"/>
<path d="M1900 2110C1900 2087.91 1917.91 2070 1940 2070C1962.09 2070 1980 2087.91 1980 2110V2165C1980 2173.28 1973.28 2180 1965 2180H1915C1906.72 2180 1900 2173.28 1900 2165V2110Z" fill="white"/>
<path d="M1980 2020C1980 2042.09 1962.09 2060 1940 2060C1917.91 2060 1900 2042.09 1900 2020C1900 1997.91 1917.91 1980 1940 1980C1962.09 1980 1980 1997.91 1980 2020Z" fill="white"/>
<path d="M2000 2110C2000 2087.91 2017.91 2070 2040 2070C2062.09 2070 2080 2087.91 2080 2110V2165C2080 2173.28 2073.28 2180 2065 2180H2015C2006.72 2180 2000 2173.28 2000 2165V2110Z" fill="white"/>
<path d="M2080 2020C2080 2042.09 2062.09 2060 2040 2060C2017.91 2060 2000 2042.09 2000 2020C2000 1997.91 2017.91 1980 2040 1980C2062.09 1980 2080 1997.91 2080 2020Z" fill="white"/>
<path d="M1700 2110C1700 2087.91 1717.91 2070 1740 2070C1762.09 2070 1780 2087.91 1780 2110V2165C1780 2173.28 1773.28 2180 1765 2180H1715C1706.72 2180 1700 2173.28 1700 2165V2110Z" fill="white"/>
<path d="M1780 2020C1780 2042.09 1762.09 2060 1740 2060C1717.91 2060 1700 2042.09 1700 2020C1700 1997.91 1717.91 1980 1740 1980C1762.09 1980 1780 1997.91 1780 2020Z" fill="white"/>
<path d="M1800 2110C1800 2087.91 1817.91 2070 1840 2070C1862.09 2070 1880 2087.91 1880 2110V2165C1880 2173.28 1873.28 2180 1865 2180H1815C1806.72 2180 1800 2173.28 1800 2165V2110Z" fill="white"/>
<path d="M1880 2020C1880 2042.09 1862.09 2060 1840 2060C1817.91 2060 1800 2042.09 1800 2020C1800 1997.91 1817.91 1980 1840 1980C1862.09 1980 1880 1997.91 1880 2020Z" fill="white"/>
<path d="M1500 2330C1500 2307.91 1517.91 2290 1540 2290C1562.09 2290 1580 2307.91 1580 2330V2385C1580 2393.28 1573.28 2400 1565 2400H1515C1506.72 2400 1500 2393.28 1500 2385V2330Z" fill="white"/>
<path d="M1580 2240C1580 2262.09 1562.09 2280 1540 2280C1517.91 2280 1500 2262.09 1500 2240C1500 2217.91 1517.91 2200 1540 2200C1562.09 2200 1580 2217.91 1580 2240Z" fill="white"/>
<path d="M1600 2330C1600 2307.91 1617.91 2290 1640 2290C1662.09 2290 1680 2307.91 1680 2330V2385C1680 2393.28 1673.28 2400 1665 2400H1615C1606.72 2400 1600 2393.28 1600 2385V2330Z" fill="white"/>
<path d="M1680 2240C1680 2262.09 1662.09 2280 1640 2280C1617.91 2280 1600 2262.09 1600 2240C1600 2217.91 1617.91 2200 1640 2200C1662.09 2200 1680 2217.91 1680 2240Z" fill="white"/>
<path d="M1900 2330C1900 2307.91 1917.91 2290 1940 2290C1962.09 2290 1980 2307.91 1980 2330V2385C1980 2393.28 1973.28 2400 1965 2400H1915C1906.72 2400 1900 2393.28 1900 2385V2330Z" fill="white"/>
<path d="M1980 2240C1980 2262.09 1962.09 2280 1940 2280C1917.91 2280 1900 2262.09 1900 2240C1900 2217.91 1917.91 2200 1940 2200C1962.09 2200 1980 2217.91 1980 2240Z" fill="white"/>
<path d="M2000 2330C2000 2307.91 2017.91 2290 2040 2290C2062.09 2290 2080 2307.91 2080 2330V2385C2080 2393.28 2073.28 2400 2065 2400H2015C2006.72 2400 2000 2393.28 2000 2385V2330Z" fill="white"/>
<path d="M2080 2240C2080 2262.09 2062.09 2280 2040 2280C2017.91 2280 2000 2262.09 2000 2240C2000 2217.91 2017.91 2200 2040 2200C2062.09 2200 2080 2217.91 2080 2240Z" fill="white"/>
<path d="M1700 2330C1700 2307.91 1717.91 2290 1740 2290C1762.09 2290 1780 2307.91 1780 2330V2385C1780 2393.28 1773.28 2400 1765 2400H1715C1706.72 2400 1700 2393.28 1700 2385V2330Z" fill="white"/>
<path d="M1780 2240C1780 2262.09 1762.09 2280 1740 2280C1717.91 2280 1700 2262.09 1700 2240C1700 2217.91 1717.91 2200 1740 2200C1762.09 2200 1780 2217.91 1780 2240Z" fill="white"/>
<path d="M1800 2330C1800 2307.91 1817.91 2290 1840 2290C1862.09 2290 1880 2307.91 1880 2330V2385C1880 2393.28 1873.28 2400 1865 2400H1815C1806.72 2400 1800 2393.28 1800 2385V2330Z" fill="white"/>
<path d="M1880 2240C1880 2262.09 1862.09 2280 1840 2280C1817.91 2280 1800 2262.09 1800 2240C1800 2217.91 1817.91 2200 1840 2200C1862.09 2200 1880 2217.91 1880 2240Z" fill="white"/>
<path d="M1000 1010C1000 987.909 1017.91 970 1040 970C1062.09 970 1080 987.909 1080 1010V1065C1080 1073.28 1073.28 1080 1065 1080H1015C1006.72 1080 1000 1073.28 1000 1065V1010Z" fill="white"/>
<path d="M1080 920C1080 942.091 1062.09 960 1040 960C1017.91 960 1000 942.091 1000 920C1000 897.909 1017.91 880 1040 880C1062.09 880 1080 897.909 1080 920Z" fill="white"/>
<path d="M1500 2550C1500 2527.91 1517.91 2510 1540 2510C1562.09 2510 1580 2527.91 1580 2550V2605C1580 2613.28 1573.28 2620 1565 2620H1515C1506.72 2620 1500 2613.28 1500 2605V2550Z" fill="white"/>
<path d="M1580 2460C1580 2482.09 1562.09 2500 1540 2500C1517.91 2500 1500 2482.09 1500 2460C1500 2437.91 1517.91 2420 1540 2420C1562.09 2420 1580 2437.91 1580 2460Z" fill="white"/>
<path d="M1600 2550C1600 2527.91 1617.91 2510 1640 2510C1662.09 2510 1680 2527.91 1680 2550V2605C1680 2613.28 1673.28 2620 1665 2620H1615C1606.72 2620 1600 2613.28 1600 2605V2550Z" fill="white"/>
<path d="M1680 2460C1680 2482.09 1662.09 2500 1640 2500C1617.91 2500 1600 2482.09 1600 2460C1600 2437.91 1617.91 2420 1640 2420C1662.09 2420 1680 2437.91 1680 2460Z" fill="white"/>
<path d="M1900 2550C1900 2527.91 1917.91 2510 1940 2510C1962.09 2510 1980 2527.91 1980 2550V2605C1980 2613.28 1973.28 2620 1965 2620H1915C1906.72 2620 1900 2613.28 1900 2605V2550Z" fill="white"/>
<path d="M1980 2460C1980 2482.09 1962.09 2500 1940 2500C1917.91 2500 1900 2482.09 1900 2460C1900 2437.91 1917.91 2420 1940 2420C1962.09 2420 1980 2437.91 1980 2460Z" fill="white"/>
<path d="M2000 2550C2000 2527.91 2017.91 2510 2040 2510C2062.09 2510 2080 2527.91 2080 2550V2605C2080 2613.28 2073.28 2620 2065 2620H2015C2006.72 2620 2000 2613.28 2000 2605V2550Z" fill="white"/>
<path d="M2080 2460C2080 2482.09 2062.09 2500 2040 2500C2017.91 2500 2000 2482.09 2000 2460C2000 2437.91 2017.91 2420 2040 2420C2062.09 2420 2080 2437.91 2080 2460Z" fill="white"/>
<path d="M1700 2550C1700 2527.91 1717.91 2510 1740 2510C1762.09 2510 1780 2527.91 1780 2550V2605C1780 2613.28 1773.28 2620 1765 2620H1715C1706.72 2620 1700 2613.28 1700 2605V2550Z" fill="white"/>
<path d="M1780 2460C1780 2482.09 1762.09 2500 1740 2500C1717.91 2500 1700 2482.09 1700 2460C1700 2437.91 1717.91 2420 1740 2420C1762.09 2420 1780 2437.91 1780 2460Z" fill="white"/>
<path d="M1800 2550C1800 2527.91 1817.91 2510 1840 2510C1862.09 2510 1880 2527.91 1880 2550V2605C1880 2613.28 1873.28 2620 1865 2620H1815C1806.72 2620 1800 2613.28 1800 2605V2550Z" fill="white"/>
<path d="M1880 2460C1880 2482.09 1862.09 2500 1840 2500C1817.91 2500 1800 2482.09 1800 2460C1800 2437.91 1817.91 2420 1840 2420C1862.09 2420 1880 2437.91 1880 2460Z" fill="white"/>
</svg>
